# xmcd
#
# Track frame offsets:
# 150
# 11924
# 29155
# 46256
# 59461
# 76848
# 93218
# 107982
# 128822
# 145325
# 157764
# 179734
# 197880
# 219021
# 237740
# 251225
# 267125
# 282021
# 298532
# 318855
#
# Disc length: 4388 seconds
#
# Revision: 1
# Processed by: cddbd v1.5.2PL0 Copyright (c) Steve Scherf et al.
# Submitted via: CedeCatalogueitor 2.6.0.6 http://personales.ya.com/cdcatalogueitor
#
DISCID=27112214
DTITLE=Surfin' Bichos - La Luz En Tus Entrañas
DYEAR=1900
DGENRE=
TTITLE0=¿Amas Lo Desconocido?
TTITLE1=Aráñame Con Cariño
TTITLE2=Gente Abollada (versión álbum)
TTITLE3=Un Perro Feliz
TTITLE4=La Luz En Tus Entrañas
TTITLE5=Crisis
TTITLE6=Vive El Peligro
TTITLE7=El Rey Del Pegamento
TTITLE8=Malaventuranza
TTITLE9=Nada Puede Calmar Mi Sed
TTITLE10=Sin Dejar De Sonreir
TTITLE11=Hay Quien Sueña Con Cuchillos
TTITLE12=La Marca De Caín
TTITLE13=El Crujido Del Cangrejo
TTITLE14=El Mundo Por Los Pies
TTITLE15=Sólo Por Ti Seré El Mejor
TTITLE16=Olvidé Mi Orgullo
TTITLE17=Gente Abollada (versión EP)
TTITLE18=El Fantasma En La Botella
TTITLE19=Los Cuatro Motocarros Del Apocalipsis
EXTD=
EXTT0=
EXTT1=
EXTT2=
EXTT3=
EXTT4=
EXTT5=
EXTT6=
EXTT7=
EXTT8=
EXTT9=
EXTT10=
EXTT11=
EXTT12=
EXTT13=
EXTT14=
EXTT15=
EXTT16=
EXTT17=
EXTT18=
EXTT19=
PLAYORDER=
